<svg width="90" height="40" viewBox="0 0 90 40" fill="none" xmlns="http://www.w3.org/2000/svg">
  <path fill-rule="evenodd" clip-rule="evenodd" d="M21.3516 4.14135L21.3337 15.233C22.887 16.3583 23.8387 18.1859 23.8297 20.1576V22.0842C23.8208 24.9471 22.8062 27.675 21.0194 29.6917V33.6529C21.0194 35.0394 19.8971 36.1648 18.5144 36.1648H17.3382V39.1987V39.3158C17.3382 39.6939 17.0329 40 16.6558 40H8.3057C7.9286 40 7.62332 39.6939 7.62332 39.3158V38.3975V36.1648H6.34836C4.96565 36.1648 3.84332 35.0394 3.84332 33.6529V29.8177C3.84332 29.6376 3.78945 29.5116 3.74456 29.4576C2.09249 27.4319 1.18565 24.8661 1.18565 22.2462V21.7961L0.180041 18.528C-0.161147 17.3937 -0.0174889 16.1783 0.611015 15.1519C1.14973 14.2606 2.0476 13.6304 3.04422 13.3243L3.75353 13.1083C3.87026 13.0722 3.978 13.0452 4.09472 13.0182C4.59753 12.0909 5.45049 11.3707 6.50099 11.0466L7.34499 10.7855C8.1351 10.5424 8.97012 10.5424 9.74228 10.7765C10.0116 10.6145 10.29 10.4884 10.5952 10.3984L11.4482 10.1373C11.7266 10.0563 11.9959 10.0023 12.2743 9.97524L12.2832 4.12334C12.2832 1.8456 14.1328 0 16.4044 0H17.1048C18.1463 0 19.1788 0.342111 19.96 1.04434C20.8578 1.8366 21.3516 2.95296 21.3516 4.14135ZM9.22152 38.3885H15.74V36.1558H9.22152V38.3885ZM19.1968 28.9444C20.9745 27.2339 21.9981 24.749 22.0071 22.0662L22.025 20.2206C22.025 19.4913 21.8724 18.7531 21.5222 18.1139C21.0464 17.2496 20.3371 16.6284 19.52 16.2593L19.538 4.12334C19.538 2.85393 18.5144 1.81859 17.2484 1.81859H16.4044C15.6951 1.80959 15.0217 2.1427 14.5728 2.72789C14.2495 3.14202 14.1059 3.67319 14.1059 4.19536L14.0969 12.28C13.9892 12.199 13.8635 12.1179 13.7378 12.0459C13.1901 11.7578 12.5705 11.7038 11.9869 11.8839L11.1429 12.1449C10.685 12.289 10.299 12.5681 10.0116 12.9372C9.89491 12.8472 9.77819 12.7661 9.64351 12.6941C9.09582 12.406 8.47629 12.352 7.89268 12.5321L7.03971 12.7932C6.11491 13.0813 5.50437 13.9005 5.43254 14.8098C5.06441 14.7288 4.67833 14.7378 4.30123 14.8548L3.44826 15.1159C2.23615 15.485 1.56275 16.7724 1.93087 17.9878L3.00831 21.526V22.2462C2.99933 24.4519 3.76251 26.5946 5.1542 28.2962C5.48641 28.6923 5.66598 29.2325 5.66598 29.8087V33.6439C5.66598 34.0221 5.97125 34.3282 6.34836 34.3282H18.5144C18.8915 34.3282 19.1968 34.0221 19.1968 33.6439V28.9444ZM15.4437 15.8992H17.7961C17.8556 15.8992 17.9151 15.9015 17.9735 15.9038L17.9735 15.9038H17.9736C18.0296 15.906 18.0845 15.9082 18.1373 15.9082L18.1553 4.12334C18.1553 3.61017 17.7423 3.19604 17.2305 3.19604H16.3865C16.1351 3.19604 15.9016 3.29507 15.731 3.46612C15.5604 3.64618 15.4617 3.87126 15.4617 4.12334L15.4437 15.8992ZM12.6693 15.8992C12.2024 15.8992 11.7894 16.0702 11.4482 16.3403L11.4393 16.3133L10.9185 14.6297C10.8467 14.3957 10.8736 14.1436 10.9813 13.9185C11.0981 13.7024 11.2866 13.5404 11.529 13.4684L12.382 13.2073C12.6155 13.1353 12.8669 13.1623 13.0913 13.2703C13.3068 13.3873 13.4684 13.5764 13.5403 13.8195L14.079 15.5841V15.9082L12.6693 15.8992ZM10.4247 20.8058C10.6671 20.7338 10.8556 20.5717 10.9724 20.3556C11.0891 20.1396 11.107 19.8875 11.0262 19.6444L9.42804 14.4497C9.35621 14.2066 9.19459 14.0176 8.97911 13.9005C8.84443 13.8285 8.70077 13.7925 8.54813 13.7925C8.45835 13.7925 8.36856 13.8105 8.27877 13.8375L7.4258 14.0986C6.94096 14.2516 6.66262 14.7738 6.81526 15.26L8.41345 20.4547C8.56609 20.9408 9.08685 21.2199 9.5717 21.0669L10.4247 20.8058ZM7.23727 24.443L6.3843 24.7041C6.15984 24.7671 5.93537 24.8031 5.71988 24.7941C5.36972 24.7941 5.02853 24.704 4.72326 24.56C5.02853 25.5953 5.53133 26.5677 6.22269 27.4139C6.75243 28.0621 7.03974 28.9084 7.03974 29.7997V32.9507H17.85V30.0698C16.9162 30.727 16.18 31.0601 16.1351 31.0781C16.0453 31.1231 15.9465 31.1411 15.8568 31.1411C15.5874 31.1411 15.345 30.9881 15.2282 30.736C15.0666 30.3849 15.2282 29.9798 15.5694 29.8267C15.5874 29.8267 16.8354 29.2595 18.0745 28.1522C19.6996 26.7027 20.6424 24.479 20.6513 22.0662V20.1396C20.6513 19.3743 20.355 18.6541 19.8163 18.1139C19.2776 17.5647 18.5593 17.2676 17.7961 17.2676L12.6604 17.2586C12.3461 17.2586 12.0857 17.5197 12.0857 17.8348C12.0857 18.312 12.2025 19.8515 13.666 19.8515H15.8119C16.4493 19.8515 16.9611 20.3646 16.9611 21.0038V22.8494C16.9611 23.9388 16.0722 24.8301 14.9858 24.8301H14.4292C13.1272 24.8301 12.0768 25.8924 12.0768 27.1889V27.4409C12.0768 27.8191 11.7715 28.1252 11.3944 28.1252C11.0173 28.1252 10.712 27.8191 10.712 27.4409V27.1889C10.712 25.1362 12.382 23.4616 14.4292 23.4616H14.9858C15.318 23.4616 15.5874 23.1916 15.5874 22.8584V21.2379H13.657C13.1183 21.2379 12.6424 21.1119 12.2294 20.8778C11.969 21.454 11.4842 21.9311 10.8287 22.1292L9.97575 22.3903C9.75129 22.4533 9.52682 22.4893 9.30236 22.4893C9.14972 22.4893 8.99708 22.4623 8.84445 22.4353C8.77262 23.3446 8.16207 24.1549 7.23727 24.443ZM3.84334 16.4213L4.69631 16.1602C5.18116 16.0072 5.70192 16.2863 5.85455 16.7724L7.45275 21.9671C7.60539 22.4533 7.32705 22.9754 6.8422 23.1285L5.98923 23.3896C5.50439 23.5426 4.98363 23.2635 4.83099 22.7774L3.24177 17.5827C3.08016 17.0965 3.3585 16.5744 3.84334 16.4213Z" fill="#0C40FC"/>
  <path fill-rule="evenodd" clip-rule="evenodd" d="M60.3997 34.8053C58.9721 34.8053 57.7061 34.5172 56.6107 33.95C55.6141 33.4278 54.7971 32.7166 54.1775 31.8073C54.1147 31.7173 53.971 31.7443 53.962 31.8523L53.6747 33.86C53.6298 34.1391 53.3964 34.3551 53.1091 34.3551H50.631C50.3347 34.3551 50.0923 34.112 50.0923 33.8149V8.21962C50.0923 7.92252 50.3347 7.67944 50.631 7.67944H53.4682C53.7645 7.67944 54.0069 7.92252 54.0069 8.21962V18.465C54.0069 18.582 54.1506 18.627 54.2224 18.537C54.7881 17.7897 55.5333 17.1235 56.4491 16.5383C57.4817 15.8721 58.8195 15.539 60.4446 15.539C62.2224 15.539 63.7847 15.9621 65.1404 16.7994C66.4962 17.6367 67.5647 18.7891 68.3368 20.2475C69.109 21.706 69.504 23.3625 69.504 25.2171C69.504 27.0718 69.118 28.7193 68.3368 30.1688C67.5647 31.6182 66.4962 32.7526 65.1404 33.5809C63.7757 34.3911 62.1954 34.8053 60.3997 34.8053ZM59.7353 31.4022C61.4143 31.4022 62.788 30.826 63.8744 29.6826C64.9609 28.5302 65.4996 27.0357 65.4996 25.1811C65.4996 23.9747 65.2572 22.8944 64.7633 21.9581C64.2695 21.0218 63.5961 20.2835 62.7342 19.7524C61.8722 19.2212 60.8756 18.9511 59.7353 18.9511C58.0563 18.9511 56.6826 19.5363 55.6141 20.6977C54.5457 21.8591 54.0069 23.3535 54.0069 25.1811C54.0069 27.0357 54.5457 28.5392 55.6141 29.6826C56.6826 30.826 58.0563 31.4022 59.7353 31.4022ZM45.0193 17.5557C43.6187 16.2052 41.6344 15.539 39.0665 15.539C37.6389 15.539 36.328 15.7911 35.1249 16.2953C33.9307 16.7994 32.9431 17.5287 32.1709 18.483C31.8118 18.9241 31.5244 19.4013 31.309 19.9234C31.1922 20.2025 31.3269 20.5176 31.5963 20.6347L33.8768 21.607C34.1372 21.715 34.4335 21.607 34.5682 21.3549C34.9543 20.6257 35.5289 19.9955 36.2023 19.5543C37.0014 19.0231 37.9442 18.7531 39.0306 18.7531C40.2606 18.7531 41.2663 19.1132 42.0474 19.8244C42.3616 20.1125 42.613 20.4636 42.8016 20.8687L42.8375 20.9408C43.4301 22.4623 42.3616 23.3806 41.6882 23.3806H38.411C35.8432 23.3806 33.8768 23.9027 32.4941 24.9381C31.1114 25.9734 30.4201 27.3869 30.4201 29.1604C30.4201 30.1778 30.6625 31.1051 31.1563 31.9604C31.6501 32.8156 32.4044 33.4998 33.41 34.022C34.4245 34.5442 35.6995 34.7963 37.2528 34.7963C38.851 34.7963 40.1439 34.4542 41.1316 33.7609C42.0115 33.1487 42.7028 32.4015 43.2056 31.5372C43.2595 31.4382 43.4121 31.4742 43.4301 31.5912L43.6725 33.842C43.6995 34.1301 43.9509 34.3551 44.2472 34.3551H46.5906C46.8869 34.3551 47.1293 34.1121 47.1293 33.815V23.0565C47.1293 20.7337 46.429 18.8971 45.0193 17.5557ZM42.4155 28.8453C42.0115 29.6826 41.4458 30.3578 40.7186 30.862C39.9913 31.3662 39.0934 31.6182 38.0429 31.6182C36.9565 31.6182 36.1035 31.3752 35.475 30.898C34.8465 30.4118 34.5323 29.7546 34.5323 28.9174C34.5323 28.0981 34.8555 27.4229 35.511 26.8827C36.1664 26.3425 37.2708 26.0634 38.8151 26.0634H41.6972C42.2988 26.0634 42.7118 25.8474 42.9363 25.6853C43.0171 25.6313 43.1338 25.6943 43.1248 25.7933C43.062 26.9637 42.7926 28.0621 42.4155 28.8453ZM85.908 28.4222C86.0427 28.1791 86.339 28.0711 86.5993 28.1881L88.6914 29.1154C88.9877 29.2415 89.1044 29.6016 88.9428 29.8807C88.1526 31.2851 87.2548 32.3025 86.2761 33.0677C84.8036 34.2291 82.9989 34.8143 80.8261 34.8143C79.0303 34.8143 77.4322 34.4091 76.0405 33.6079C74.6488 32.7976 73.5624 31.6813 72.7722 30.2498C71.9821 28.8183 71.5871 27.1438 71.5871 25.2442C71.5871 23.3175 71.9821 21.625 72.7543 20.1665C73.5264 18.708 74.6129 17.5737 76.0045 16.7544C77.3962 15.9351 79.0124 15.53 80.862 15.53C82.6577 15.53 84.229 15.9351 85.5578 16.7364C86.8867 17.5377 87.9282 18.609 88.6644 19.9414C89.4097 21.2739 89.7778 22.7504 89.7778 24.3529C89.7778 24.5825 89.7703 24.8197 89.7622 25.0779L89.7598 25.1541C89.7598 25.2812 89.7519 25.4161 89.7435 25.5591L89.7419 25.5863C89.7239 25.8744 89.4905 26.0994 89.2031 26.0994H75.6454C75.5377 26.0994 75.4479 26.1985 75.4569 26.3065C75.6095 27.9811 76.1931 29.2685 77.1987 30.1598C78.2492 31.0871 79.4613 31.5462 80.844 31.5462C81.9484 31.5462 82.954 31.2581 83.7172 30.772C84.9293 30.0067 85.6027 28.9984 85.908 28.4222ZM80.844 18.7531C79.5421 18.7531 78.3839 19.1492 77.3693 19.9234C76.3996 20.6707 75.798 21.76 75.5466 23.2095C75.5287 23.3175 75.6185 23.4256 75.7352 23.4256H85.6656C85.7733 23.4256 85.8631 23.3265 85.8541 23.2185C85.7464 21.8861 85.2436 20.8147 84.3547 20.0135C83.4209 19.1762 82.2447 18.7531 80.844 18.7531Z" fill="#0C40FC"/>
</svg>