<svg width="14" height="14" viewBox="0 0 14 14" fill="none" xmlns="http://www.w3.org/2000/svg">
  <path d="M7 0.333252C3.32 0.333252 0.333336 3.31992 0.333336 6.99992C0.333336 10.6799 3.32 13.6666 7 13.6666C10.68 13.6666 13.6667 10.6799 13.6667 6.99992C13.6667 3.31992 10.68 0.333252 7 0.333252ZM7 2.33325C8.10667 2.33325 9 3.22659 9 4.33325C9 5.43992 8.10667 6.33325 7 6.33325C5.89334 6.33325 5 5.43992 5 4.33325C5 3.22659 5.89334 2.33325 7 2.33325ZM7 11.7999C5.33334 11.7999 3.86 10.9466 3 9.65325C3.02 8.32659 5.66667 7.59992 7 7.59992C8.32667 7.59992 10.98 8.32659 11 9.65325C10.14 10.9466 8.66667 11.7999 7 11.7999Z" fill="black"/>
</svg>