<svg width="32" height="33" viewBox="0 0 32 33" fill="none" xmlns="http://www.w3.org/2000/svg">
  <mask id="mask0" mask-type="alpha" maskUnits="userSpaceOnUse" x="0" y="0" width="32" height="33">
    <path fill-rule="evenodd" clip-rule="evenodd" d="M0 16.8068C0 7.97021 7.16344 0.806763 16 0.806763C24.8366 0.806763 32 7.97021 32 16.8068C32 25.6433 24.8366 32.8068 16 32.8068C7.16344 32.8068 0 25.6433 0 16.8068Z" fill="white"/>
  </mask>
  <g mask="url(#mask0)">
    <path fill-rule="evenodd" clip-rule="evenodd" d="M0 16.8068C0 7.97021 7.16344 0.806763 16 0.806763C24.8366 0.806763 32 7.97021 32 16.8068C32 25.6433 24.8366 32.8068 16 32.8068C7.16344 32.8068 0 25.6433 0 16.8068Z" fill="white"/>
    <path fill-rule="evenodd" clip-rule="evenodd" d="M16.0008 8.27356C13.6833 8.27356 13.3924 8.28369 12.4822 8.32512C11.5737 8.36672 10.9536 8.51054 10.4111 8.72156C9.84981 8.93952 9.37372 9.23108 8.8994 9.70557C8.42473 10.1799 8.13317 10.656 7.9145 11.2171C7.70294 11.7598 7.55894 12.3801 7.51805 13.2882C7.47734 14.1984 7.46667 14.4894 7.46667 16.807C7.46667 19.1245 7.47699 19.4145 7.51823 20.3247C7.56001 21.2332 7.70383 21.8533 7.91468 22.3958C8.13282 22.9571 8.42437 23.4332 8.89887 23.9075C9.37301 24.3822 9.8491 24.6744 10.41 24.8924C10.9529 25.1034 11.5732 25.2472 12.4815 25.2888C13.3917 25.3303 13.6824 25.3404 15.9997 25.3404C18.3175 25.3404 18.6074 25.3303 19.5176 25.2888C20.4261 25.2472 21.0469 25.1034 21.5898 24.8924C22.1509 24.6744 22.6263 24.3822 23.1004 23.9075C23.5751 23.4332 23.8667 22.9571 24.0853 22.396C24.2951 21.8533 24.4391 21.233 24.4818 20.3249C24.5227 19.4147 24.5333 19.1245 24.5333 16.807C24.5333 14.4894 24.5227 14.1986 24.4818 13.2884C24.4391 12.3799 24.2951 11.7598 24.0853 11.2172C23.8667 10.656 23.5751 10.1799 23.1004 9.70557C22.6258 9.2309 22.1511 8.93934 21.5893 8.72156C21.0453 8.51054 20.4249 8.36672 19.5164 8.32512C18.6062 8.28369 18.3164 8.27356 15.9981 8.27356H16.0008ZM15.2352 9.81117C15.4624 9.81082 15.7159 9.81117 16.0007 9.81117C18.2792 9.81117 18.5492 9.81935 19.4489 9.86024C20.281 9.89829 20.7325 10.0373 21.0333 10.1541C21.4315 10.3088 21.7155 10.4937 22.014 10.7923C22.3126 11.091 22.4975 11.3755 22.6525 11.7737C22.7693 12.0741 22.9085 12.5257 22.9464 13.3577C22.9873 14.2573 22.9962 14.5275 22.9962 16.8048C22.9962 19.0822 22.9873 19.3524 22.9464 20.252C22.9084 21.084 22.7693 21.5356 22.6525 21.836C22.4979 22.2342 22.3126 22.5178 22.014 22.8163C21.7153 23.115 21.4317 23.2998 21.0333 23.4545C20.7329 23.5719 20.281 23.7105 19.4489 23.7486C18.5494 23.7895 18.2792 23.7983 16.0007 23.7983C13.7221 23.7983 13.4521 23.7895 12.5525 23.7486C11.7205 23.7102 11.269 23.5711 10.968 23.4543C10.5697 23.2997 10.2853 23.1148 9.98663 22.8161C9.68796 22.5174 9.50307 22.2337 9.34804 21.8353C9.23124 21.5349 9.09204 21.0833 9.05417 20.2513C9.01328 19.3517 9.00511 19.0815 9.00511 16.8027C9.00511 14.5239 9.01328 14.2551 9.05417 13.3556C9.09222 12.5236 9.23124 12.072 9.34804 11.7712C9.50271 11.373 9.68796 11.0885 9.98663 10.7899C10.2853 10.4912 10.5697 10.3063 10.968 10.1513C11.2688 10.0339 11.7205 9.89526 12.5525 9.85704C13.3397 9.82149 13.6448 9.81082 15.2352 9.80904V9.81117ZM20.5568 11.228C19.9914 11.228 19.5328 11.6862 19.5328 12.2517C19.5328 12.817 19.9914 13.2757 20.5568 13.2757C21.1221 13.2757 21.5808 12.817 21.5808 12.2517C21.5808 11.6863 21.1221 11.2277 20.5568 11.2277V11.228ZM16.001 12.4243C13.5809 12.4243 11.6187 14.3864 11.6187 16.8065C11.6187 19.2267 13.5809 21.1879 16.001 21.1879C18.4211 21.1879 20.3825 19.2267 20.3825 16.8065C20.3825 14.3864 18.4209 12.4243 16.0008 12.4243H16.001ZM16.0001 13.9627C17.571 13.9627 18.8446 15.2361 18.8446 16.8072C18.8446 18.378 17.571 19.6516 16.0001 19.6516C14.4291 19.6516 13.1557 18.378 13.1557 16.8072C13.1557 15.2361 14.4291 13.9627 16.0001 13.9627Z" fill="black"/>
  </g>
</svg>