<svg width="32" height="33" viewBox="0 0 32 33" fill="none" xmlns="http://www.w3.org/2000/svg">
  <path fill-rule="evenodd" clip-rule="evenodd" d="M0 16.8068C0 7.97021 7.16344 0.806763 16 0.806763C24.8366 0.806763 32 7.97021 32 16.8068C32 25.6433 24.8366 32.8068 16 32.8068C7.16344 32.8068 0 25.6433 0 16.8068Z" fill="white"/>
  <path fill-rule="evenodd" clip-rule="evenodd" d="M15.5208 13.8117L15.5544 14.3654L14.9948 14.2976C12.9579 14.0377 11.1784 13.1564 9.66756 11.6763L8.92891 10.9419L8.73865 11.4842C8.33575 12.6932 8.59316 13.9699 9.43253 14.8286C9.8802 15.3032 9.77948 15.371 9.00725 15.0885C8.73865 14.9981 8.50363 14.9303 8.48124 14.9642C8.4029 15.0433 8.6715 16.0715 8.88414 16.4782C9.17513 17.0432 9.76828 17.5968 10.4174 17.9245L10.9658 18.1843L10.3167 18.1956C9.68994 18.1956 9.66756 18.2069 9.73471 18.4442C9.95854 19.1786 10.8427 19.9582 11.8276 20.2972L12.5214 20.5345L11.9171 20.896C11.0218 21.4158 9.96973 21.7095 8.91772 21.7321C8.41409 21.7434 8 21.7886 8 21.8225C8 21.9355 9.36538 22.5682 10.16 22.8168C12.5438 23.5512 15.3753 23.2349 17.5017 21.9807C19.0126 21.0881 20.5235 19.3142 21.2286 17.5968C21.6091 16.6816 21.9896 15.0094 21.9896 14.2072C21.9896 13.6875 22.0232 13.6197 22.6499 12.9982C23.0192 12.6367 23.3662 12.2412 23.4333 12.1282C23.5452 11.9136 23.534 11.9136 22.9633 12.1056C22.012 12.4446 21.8777 12.3994 22.3477 11.891C22.6947 11.5294 23.1088 10.8741 23.1088 10.682C23.1088 10.6481 22.9409 10.7046 22.7506 10.8063C22.5492 10.9193 22.1015 11.0888 21.7658 11.1904L21.1614 11.3825L20.613 11.0097C20.3108 10.8063 19.8856 10.5803 19.6617 10.5125C19.0909 10.3543 18.218 10.3769 17.7032 10.5577C16.3042 11.0662 15.4201 12.3768 15.5208 13.8117Z" fill="black"/>
</svg>
