<svg width="24" height="40" viewBox="0 0 24 40" fill="none" xmlns="http://www.w3.org/2000/svg">
  <path fill-rule="evenodd" clip-rule="evenodd" d="M21.3516 4.14135L21.3337 15.233C22.887 16.3583 23.8387 18.1859 23.8297 20.1576V22.0842C23.8208 24.9471 22.8062 27.675 21.0194 29.6917V33.6529C21.0194 35.0394 19.8971 36.1648 18.5144 36.1648H17.3382V39.1987V39.3158C17.3382 39.6939 17.0329 40 16.6558 40H8.3057C7.9286 40 7.62332 39.6939 7.62332 39.3158V38.3975V36.1648H6.34836C4.96565 36.1648 3.84332 35.0394 3.84332 33.6529V29.8177C3.84332 29.6376 3.78945 29.5116 3.74456 29.4576C2.09249 27.4319 1.18565 24.8661 1.18565 22.2462V21.7961L0.180041 18.528C-0.161147 17.3937 -0.0174889 16.1783 0.611015 15.1519C1.14973 14.2606 2.0476 13.6304 3.04422 13.3243L3.75353 13.1083C3.87026 13.0722 3.978 13.0452 4.09472 13.0182C4.59753 12.0909 5.45049 11.3707 6.50099 11.0466L7.34499 10.7855C8.1351 10.5424 8.97012 10.5424 9.74228 10.7765C10.0116 10.6145 10.29 10.4884 10.5952 10.3984L11.4482 10.1373C11.7266 10.0563 11.9959 10.0023 12.2743 9.97524L12.2832 4.12334C12.2832 1.8456 14.1328 0 16.4044 0H17.1048C18.1463 0 19.1788 0.342111 19.96 1.04434C20.8578 1.8366 21.3516 2.95296 21.3516 4.14135ZM9.22152 38.3885H15.74V36.1558H9.22152V38.3885ZM19.1968 28.9444C20.9745 27.2339 21.9981 24.749 22.0071 22.0662L22.025 20.2206C22.025 19.4913 21.8724 18.7531 21.5222 18.1139C21.0464 17.2496 20.3371 16.6284 19.52 16.2593L19.538 4.12334C19.538 2.85393 18.5144 1.81859 17.2484 1.81859H16.4044C15.6951 1.80959 15.0217 2.1427 14.5728 2.72789C14.2495 3.14202 14.1059 3.67319 14.1059 4.19536L14.0969 12.28C13.9892 12.199 13.8635 12.1179 13.7378 12.0459C13.1901 11.7578 12.5705 11.7038 11.9869 11.8839L11.1429 12.1449C10.685 12.289 10.299 12.5681 10.0116 12.9372C9.89491 12.8472 9.77819 12.7661 9.64351 12.6941C9.09582 12.406 8.47629 12.352 7.89268 12.5321L7.03971 12.7932C6.11491 13.0813 5.50437 13.9005 5.43254 14.8098C5.06441 14.7288 4.67833 14.7378 4.30123 14.8548L3.44826 15.1159C2.23615 15.485 1.56275 16.7724 1.93087 17.9878L3.00831 21.526V22.2462C2.99933 24.4519 3.76251 26.5946 5.1542 28.2962C5.48641 28.6923 5.66598 29.2325 5.66598 29.8087V33.6439C5.66598 34.0221 5.97125 34.3282 6.34836 34.3282H18.5144C18.8915 34.3282 19.1968 34.0221 19.1968 33.6439V28.9444ZM15.4437 15.8992H17.7961C17.8556 15.8992 17.9151 15.9015 17.9735 15.9038L17.9735 15.9038H17.9736C18.0296 15.906 18.0845 15.9082 18.1373 15.9082L18.1553 4.12334C18.1553 3.61017 17.7423 3.19604 17.2305 3.19604H16.3865C16.1351 3.19604 15.9016 3.29507 15.731 3.46612C15.5604 3.64618 15.4617 3.87126 15.4617 4.12334L15.4437 15.8992ZM12.6693 15.8992C12.2024 15.8992 11.7894 16.0702 11.4482 16.3403L11.4393 16.3133L10.9185 14.6297C10.8467 14.3957 10.8736 14.1436 10.9813 13.9185C11.0981 13.7024 11.2866 13.5404 11.529 13.4684L12.382 13.2073C12.6155 13.1353 12.8669 13.1623 13.0913 13.2703C13.3068 13.3873 13.4684 13.5764 13.5403 13.8195L14.079 15.5841V15.9082L12.6693 15.8992ZM10.4247 20.8058C10.6671 20.7338 10.8556 20.5717 10.9724 20.3556C11.0891 20.1396 11.107 19.8875 11.0262 19.6444L9.42804 14.4497C9.35621 14.2066 9.19459 14.0176 8.97911 13.9005C8.84443 13.8285 8.70077 13.7925 8.54813 13.7925C8.45835 13.7925 8.36856 13.8105 8.27877 13.8375L7.4258 14.0986C6.94096 14.2516 6.66262 14.7738 6.81526 15.26L8.41345 20.4547C8.56609 20.9408 9.08685 21.2199 9.5717 21.0669L10.4247 20.8058ZM7.23727 24.443L6.3843 24.7041C6.15984 24.7671 5.93537 24.8031 5.71988 24.7941C5.36972 24.7941 5.02853 24.704 4.72326 24.56C5.02853 25.5953 5.53133 26.5677 6.22269 27.4139C6.75243 28.0621 7.03974 28.9084 7.03974 29.7997V32.9507H17.85V30.0698C16.9162 30.727 16.18 31.0601 16.1351 31.0781C16.0453 31.1231 15.9465 31.1411 15.8568 31.1411C15.5874 31.1411 15.345 30.9881 15.2282 30.736C15.0666 30.3849 15.2282 29.9798 15.5694 29.8267C15.5874 29.8267 16.8354 29.2595 18.0745 28.1522C19.6996 26.7027 20.6424 24.479 20.6513 22.0662V20.1396C20.6513 19.3743 20.355 18.6541 19.8163 18.1139C19.2776 17.5647 18.5593 17.2676 17.7961 17.2676L12.6604 17.2586C12.3461 17.2586 12.0857 17.5197 12.0857 17.8348C12.0857 18.312 12.2025 19.8515 13.666 19.8515H15.8119C16.4493 19.8515 16.9611 20.3646 16.9611 21.0038V22.8494C16.9611 23.9388 16.0722 24.8301 14.9858 24.8301H14.4292C13.1272 24.8301 12.0768 25.8924 12.0768 27.1889V27.4409C12.0768 27.8191 11.7715 28.1252 11.3944 28.1252C11.0173 28.1252 10.712 27.8191 10.712 27.4409V27.1889C10.712 25.1362 12.382 23.4616 14.4292 23.4616H14.9858C15.318 23.4616 15.5874 23.1916 15.5874 22.8584V21.2379H13.657C13.1183 21.2379 12.6424 21.1119 12.2294 20.8778C11.969 21.454 11.4842 21.9311 10.8287 22.1292L9.97575 22.3903C9.75129 22.4533 9.52682 22.4893 9.30236 22.4893C9.14972 22.4893 8.99708 22.4623 8.84445 22.4353C8.77262 23.3446 8.16207 24.1549 7.23727 24.443ZM3.84334 16.4213L4.69631 16.1602C5.18116 16.0072 5.70192 16.2863 5.85455 16.7724L7.45275 21.9671C7.60539 22.4533 7.32705 22.9754 6.8422 23.1285L5.98923 23.3896C5.50439 23.5426 4.98363 23.2635 4.83099 22.7774L3.24177 17.5827C3.08016 17.0965 3.3585 16.5744 3.84334 16.4213Z" fill="#0C40FC"/>
</svg>
